<svg width="22" height="22" viewBox="0 0 22 22" fill="none" xmlns="http://www.w3.org/2000/svg">
<path d="M10.6179 2.66937L10.6569 2.70791C10.6568 2.70796 10.6568 2.708 10.6567 2.70805L10.6569 2.70791L10.6179 2.66937ZM10.6179 2.66937L10.5789 2.70791C10.579 2.70796 10.579 2.70801 10.5791 2.70805L10.5789 2.70791L10.6179 2.66937ZM2.73077 10.7192L10.6179 2.74729L18.505 10.7192C18.7395 10.9562 18.8711 11.2759 18.8711 11.6131V17.8381C18.8711 18.0745 18.6813 18.2532 18.4695 18.2532H13.9249C13.7214 18.2532 13.5398 18.0829 13.5398 17.8548V14.0897C13.5398 12.4729 12.2396 11.1455 10.6179 11.1455C8.99617 11.1455 7.69596 12.4729 7.69596 14.0897V17.8548C7.69596 18.0829 7.51443 18.2532 7.31088 18.2532H2.76631C2.55448 18.2532 2.36467 18.0745 2.36467 17.8381V11.6131C2.36467 11.2759 2.49625 10.9562 2.73077 10.7192Z" fill="#333333" stroke="#333333" stroke-width="1.70493"/>
</svg>
