<svg width="104" height="41" viewBox="0 0 104 41" fill="none" xmlns="http://www.w3.org/2000/svg">
<g filter="url(#filter0_d)">
<path d="M9.77132 5.89293C7.82608 6.70718 5.68762 9.00753 5.01222 11.895C4.15689 15.5535 7.71634 17.1005 8.00829 16.5933C8.35191 15.9972 7.37048 15.7957 7.16845 13.8975C6.90736 11.4458 8.04714 8.70631 9.4816 7.5043C9.74824 7.28098 9.73556 7.59181 9.73556 8.16674C9.73556 9.19485 9.67875 18.4243 9.67875 20.3505C9.67875 22.9568 9.57109 23.7799 9.37775 24.5932C9.18185 25.4173 8.86691 25.9742 9.10556 26.1887C9.37218 26.4287 10.5106 25.8579 11.1696 24.9381C11.9599 23.8349 12.2365 22.5101 12.2862 21.0713C12.3462 19.337 12.3436 16.5848 12.3462 15.0151C12.3486 13.5753 12.3705 9.35952 12.321 6.82512C12.3088 6.20348 10.5848 5.55129 9.77122 5.89218L9.77132 5.89293ZM78.8465 18.0906C78.7838 19.4456 78.4838 20.5047 78.1116 21.2517C77.3909 22.698 75.8955 23.147 75.2606 21.068C74.9146 19.9347 74.8985 18.0421 75.1472 16.4606C75.4004 14.8495 76.1075 13.6328 77.2783 13.7426C78.4331 13.851 78.9737 15.3391 78.8465 18.0905V18.0906ZM59.3782 26.4973C59.3626 28.7487 59.0082 30.7227 58.2484 31.296C57.1707 32.109 55.7222 31.4992 56.0221 29.8563C56.2875 28.4025 57.5426 26.9178 59.3813 25.1038C59.3813 25.1038 59.3851 25.5175 59.3783 26.4973H59.3782ZM59.0839 18.0775C59.018 19.3116 58.6981 20.5514 58.349 21.2519C57.6285 22.6981 56.1222 23.1503 55.498 21.0682C55.0712 19.6456 55.1735 17.8045 55.3846 16.6444C55.6586 15.1392 56.3228 13.7429 57.5157 13.7429C58.6755 13.7429 59.2474 15.0153 59.0839 18.0776V18.0775ZM47.8059 18.0586C47.7352 19.3657 47.4802 20.4583 47.071 21.2519C46.3307 22.6882 44.866 23.1437 44.22 21.0682C43.7544 19.5716 43.9129 17.531 44.1066 16.4286C44.3941 14.7928 45.1139 13.633 46.2377 13.7429C47.3921 13.8557 47.9532 15.3392 47.8059 18.0587V18.0586ZM99.4904 19.5853C99.2082 19.5853 99.0794 19.8762 98.9729 20.3658C98.6033 22.0682 98.2149 22.4526 97.7141 22.4526C97.1545 22.4526 96.6517 21.6096 96.5225 19.9222C96.4209 18.5953 96.4372 16.1525 96.5671 13.7226C96.5936 13.2233 96.4559 12.7293 95.1168 12.2429C94.5406 12.0336 93.703 11.7255 93.2859 12.7322C92.1076 15.5763 91.6466 17.8343 91.5381 18.7515C91.5325 18.799 91.4743 18.8087 91.4641 18.6978C91.395 17.9631 91.2404 16.6281 91.2212 13.8232C91.2175 13.2759 91.1016 12.8101 90.4975 12.4287C90.1056 12.1813 88.9154 11.7436 88.4869 12.2643C88.1156 12.6901 87.6856 13.8362 87.2388 15.1946C86.8757 16.2987 86.6228 17.0456 86.6228 17.0456C86.6228 17.0456 86.6276 14.0665 86.6319 12.9365C86.6338 12.5102 86.3414 12.3681 86.2532 12.3424C85.8563 12.2272 85.0744 12.0347 84.7425 12.0347C84.333 12.0347 84.2327 12.2637 84.2327 12.5972C84.2327 12.6409 84.168 16.5195 84.168 19.2316C84.168 19.3494 84.168 19.4779 84.1692 19.6145C83.9427 20.861 83.2081 22.5531 82.4092 22.5531C81.6094 22.5531 81.232 21.8457 81.232 18.6124C81.232 16.7262 81.2887 15.9061 81.3165 14.5418C81.3327 13.7561 81.3639 13.1527 81.3621 13.0157C81.3562 12.5958 80.6301 12.3842 80.2922 12.306C79.9528 12.2271 79.6578 12.1965 79.4274 12.2096C79.1014 12.228 78.8707 12.4419 78.8707 12.7361C78.8707 12.8938 78.8725 13.1938 78.8725 13.1938C78.4526 12.5339 77.7772 12.0746 77.3279 11.9415C76.1176 11.5821 74.8546 11.9006 73.902 13.2336C73.1448 14.2928 72.6885 15.4924 72.5088 17.2159C72.3775 18.4759 72.4203 19.7536 72.6537 20.8342C72.3717 22.0535 71.8481 22.5531 71.2748 22.5531C70.4425 22.5531 69.8391 21.1946 69.9091 18.845C69.9554 17.2996 70.2646 16.2151 70.6026 14.6461C70.7467 13.9773 70.6297 13.6271 70.3359 13.2915C70.0666 12.9837 69.4926 12.8265 68.6675 13.0199C68.0797 13.1578 67.2394 13.3061 66.4706 13.42C66.4706 13.42 66.517 13.2349 66.5551 12.9086C66.755 11.1972 64.8954 11.3361 64.3021 11.8827C63.9479 12.209 63.7068 12.5939 63.6153 13.2859C63.4702 14.3841 64.3659 14.9021 64.3659 14.9021C64.072 16.2473 63.3517 18.0045 62.608 19.275C62.2097 19.9557 61.9049 20.4601 61.5116 20.9963C61.5101 20.7966 61.509 20.597 61.5083 20.3983C61.4993 17.5702 61.537 15.3444 61.5536 14.5421C61.5698 13.7564 61.6013 13.1689 61.5995 13.032C61.5951 12.7249 61.4157 12.6089 61.0426 12.462C60.7128 12.3321 60.3228 12.2422 59.9182 12.2109C59.4076 12.1711 59.1 12.4419 59.108 12.7621C59.1095 12.8226 59.1095 13.1939 59.1095 13.1939C58.6896 12.534 58.0142 12.0748 57.5649 11.9417C56.3545 11.5824 55.0916 11.9009 54.139 13.2337C53.382 14.2929 52.8862 15.7792 52.7458 17.2029C52.6149 18.5298 52.6391 19.6574 52.8175 20.6073C52.625 21.5585 52.0717 22.5532 51.446 22.5532C50.6462 22.5532 50.1911 21.8458 50.1911 18.6125C50.1911 16.7263 50.2477 15.9062 50.2756 14.5421C50.2917 13.7564 50.3229 13.1528 50.3211 13.016C50.3153 12.5961 49.5891 12.3845 49.2513 12.3061C48.8977 12.2243 48.5925 12.1943 48.3582 12.2115C48.0489 12.2346 47.8315 12.5115 47.8315 12.718V13.1939C47.4116 12.534 46.7362 12.0748 46.2869 11.9417C45.0766 11.5824 43.8206 11.906 42.861 13.2337C42.2352 14.0995 41.7286 15.0593 41.4678 17.184C41.3925 17.798 41.3592 18.373 41.3635 18.9104C41.1139 20.4365 40.0118 22.1955 39.1102 22.1955C38.5826 22.1955 38.0801 21.1722 38.0801 18.9913C38.0801 16.0863 38.2599 11.9501 38.2903 11.5515C38.2903 11.5515 39.4295 11.5321 39.6501 11.5296C40.2183 11.5233 40.7329 11.5368 41.4897 11.4981C41.8693 11.4787 42.235 10.1164 41.8433 9.9478C41.6657 9.8715 40.4107 9.80463 39.9132 9.79407C39.4949 9.78459 38.3303 9.69841 38.3303 9.69841C38.3303 9.69841 38.4348 6.95301 38.4591 6.663C38.4797 6.42128 38.167 6.29683 37.9877 6.22131C37.5516 6.03687 37.1614 5.94856 36.699 5.85322C36.06 5.72142 35.7702 5.85034 35.7136 6.3896C35.6283 7.20801 35.5841 9.60514 35.5841 9.60514C35.1153 9.60514 33.5137 9.51349 33.0446 9.51349C32.6089 9.51349 32.1386 11.3875 32.741 11.4106C33.4342 11.4374 34.6421 11.4606 35.4429 11.4848C35.4429 11.4848 35.4072 15.6891 35.4072 16.9871C35.4072 17.1252 35.4084 17.2582 35.4087 17.3872C34.9679 19.6844 33.4156 20.9252 33.4156 20.9252C33.749 19.4055 33.068 18.2643 31.8413 17.2983C31.3894 16.9423 30.4973 16.2683 29.4991 15.5298C29.4991 15.5298 30.0772 14.96 30.5899 13.8137C30.9532 13.0016 30.9689 12.0724 30.0772 11.8675C28.6039 11.5286 27.3891 12.6107 27.0267 13.7658C26.746 14.6607 26.8957 15.3247 27.4457 16.0145C27.4859 16.0649 27.5294 16.1164 27.5743 16.1682C27.2417 16.8093 26.7849 17.6723 26.3979 18.3416C25.3239 20.1998 24.5125 21.6696 23.8993 21.6696C23.4092 21.6696 23.4158 20.1773 23.4158 18.7802C23.4158 17.5758 23.5047 15.7649 23.5757 13.8901C23.5992 13.2701 23.2892 12.9169 22.7695 12.5969C22.4537 12.4026 21.7798 12.0204 21.3894 12.0204C20.8052 12.0204 19.1196 12.0999 17.527 16.7069C17.3263 17.2875 16.932 18.3456 16.932 18.3456L16.9659 12.8055C16.9659 12.6756 16.8967 12.5501 16.7383 12.4641C16.4699 12.3184 15.7531 12.0204 15.1157 12.0204C14.8121 12.0204 14.6605 12.1616 14.6605 12.4432L14.6049 21.1106C14.6049 21.7692 14.6221 22.5375 14.6872 22.8735C14.7521 23.2099 14.8572 23.4836 14.9873 23.6465C15.1173 23.809 15.2677 23.933 15.5155 23.9842C15.7462 24.0317 17.0096 24.1939 17.0752 23.7111C17.1539 23.1325 17.1569 22.5067 17.8203 20.1727C18.853 16.539 20.1995 14.7661 20.8325 14.1365C20.9432 14.0264 21.0696 14.0198 21.0635 14.2C21.0364 14.9966 20.9414 16.9873 20.8774 18.6785C20.706 23.2043 21.5293 24.0432 22.7059 24.0432C23.606 24.0432 24.8749 23.1488 26.2351 20.8848C27.0831 19.4739 27.9065 18.0904 28.4981 17.0933C28.9103 17.475 29.3729 17.8857 29.8352 18.3245C30.9096 19.3442 31.2623 20.3131 31.0283 21.2322C30.8493 21.9349 30.1752 22.6591 28.9754 21.9552C28.6257 21.7499 28.4765 21.5912 28.1248 21.3597C27.9359 21.2354 27.6475 21.1982 27.4746 21.3285C27.0254 21.6671 26.7685 22.0979 26.6218 22.6313C26.4791 23.1502 26.9988 23.4246 27.5376 23.6645C28.0015 23.871 28.9986 24.0582 29.6345 24.0795C32.1121 24.1624 34.0968 22.8832 35.4785 19.5837C35.7258 22.4333 36.7784 24.0457 38.6072 24.0457C39.8298 24.0457 41.0556 22.4654 41.5917 20.9107C41.7456 21.5444 41.9734 22.0955 42.2676 22.5615C43.6767 24.7942 46.4104 24.3137 47.7836 22.4178C48.2082 21.8319 48.2728 21.6214 48.2728 21.6214C48.4731 23.4116 49.9147 24.0371 50.7402 24.0371C51.6646 24.0371 52.6192 23.6001 53.2882 22.094C53.3666 22.2574 53.4521 22.4135 53.5456 22.5615C54.9547 24.7942 57.6884 24.3136 59.0616 22.4177C59.1264 22.3288 59.1826 22.2481 59.2317 22.1757L59.272 23.3516C59.272 23.3516 58.4886 24.0702 58.0077 24.5111C55.8913 26.4528 54.2821 27.9259 54.1637 29.6414C54.0117 31.8289 55.7858 32.6418 57.1279 32.7484C58.5532 32.8615 59.7738 32.0741 60.5241 30.9722C61.1839 30.0023 61.6159 27.9149 61.5842 25.8532C61.5715 25.0276 61.5507 23.9779 61.5344 22.8527C62.2783 21.9888 63.1164 20.897 63.8881 19.619C64.729 18.2263 65.6303 16.356 66.0918 14.9004C66.0918 14.9004 66.8748 14.9072 67.7105 14.8524C67.9778 14.835 68.0546 14.8895 68.0052 15.0855C67.9455 15.3223 66.9494 19.1644 67.8585 21.7239C68.4808 23.4761 69.8835 24.0398 70.7152 24.0398C71.6888 24.0398 72.6201 23.3046 73.1192 22.2128C73.1794 22.3345 73.2422 22.4523 73.3109 22.561C74.72 24.7937 77.4442 24.3103 78.8269 22.4172C79.139 21.9901 79.3161 21.6209 79.3161 21.6209C79.6129 23.4737 81.0537 24.046 81.879 24.046C82.7387 24.046 83.5545 23.6936 84.2165 22.1274C84.2441 22.817 84.2876 23.3809 84.3564 23.5586C84.3983 23.6674 84.6426 23.8039 84.8203 23.8698C85.6067 24.1614 86.4088 24.0235 86.7056 23.9635C86.9111 23.9219 87.0714 23.757 87.0933 23.3311C87.1509 22.213 87.1156 20.3343 87.4546 18.938C88.0236 16.5948 88.5543 15.6859 88.8061 15.2359C88.9471 14.9838 89.1061 14.9422 89.1118 15.209C89.1237 15.7489 89.1506 17.3344 89.371 19.4645C89.5329 21.0312 89.7492 21.9572 89.9154 22.2502C90.3897 23.0883 90.9755 23.128 91.4525 23.128C91.756 23.128 92.3906 23.0441 92.3338 22.5108C92.3061 22.2508 92.3546 20.6443 92.9156 18.3358C93.2819 16.8282 93.8927 15.4661 94.113 14.9681C94.1942 14.7844 94.232 14.9292 94.2307 14.9574C94.1843 15.9956 94.0802 19.3914 94.5031 21.2487C95.0764 23.7647 96.735 24.0462 97.313 24.0462C98.5468 24.0462 99.5559 23.1077 99.8958 20.6381C99.9777 20.0438 99.8565 19.5849 99.4932 19.5849" fill="#262626"/>
</g>
<defs>
<filter id="filter0_d" x="-2" y="0" width="108.8" height="44" filterUnits="userSpaceOnUse" color-interpolation-filters="sRGB">
<feFlood flood-opacity="0" result="BackgroundImageFix"/>
<feColorMatrix in="SourceAlpha" type="matrix" values="0 0 0 0 0 0 0 0 0 0 0 0 0 0 0 0 0 0 127 0" result="hardAlpha"/>
<feOffset dy="4"/>
<feGaussianBlur stdDeviation="2"/>
<feComposite in2="hardAlpha" operator="out"/>
<feColorMatrix type="matrix" values="0 0 0 0 0 0 0 0 0 0 0 0 0 0 0 0 0 0 0.25 0"/>
<feBlend mode="normal" in2="BackgroundImageFix" result="effect1_dropShadow"/>
<feBlend mode="normal" in="SourceGraphic" in2="effect1_dropShadow" result="shape"/>
</filter>
</defs>
</svg>
