<svg width="22" height="22" viewBox="0 0 22 22" fill="none" xmlns="http://www.w3.org/2000/svg">
<path fill-rule="evenodd" clip-rule="evenodd" d="M19.8758 19.3153C20.0415 19.1512 20.042 18.8835 19.8768 18.7188L16.145 14.9983C17.4159 13.5845 18.1944 11.7259 18.1944 9.67857C18.1944 5.2776 14.6133 1.70731 10.1988 1.70731C5.78443 1.70731 2.20325 5.2776 2.20325 9.67857C2.20325 14.0796 5.78443 17.6498 10.1988 17.6498C12.2609 17.6498 14.1293 16.8653 15.5475 15.5899L19.2832 19.3142C19.4468 19.4774 19.7115 19.4779 19.8758 19.3153ZM3.04489 9.67857C3.04489 5.74748 6.25575 2.54639 10.1988 2.54639C14.1419 2.54639 17.3528 5.74748 17.3528 9.67857C17.3528 13.6097 14.1419 16.8108 10.1988 16.8108C6.25575 16.8108 3.04489 13.6097 3.04489 9.67857Z" fill="#333333" stroke="#333333" stroke-width="0.852466" stroke-linecap="round" stroke-linejoin="round"/>
</svg>
