<svg width="22" height="22" viewBox="0 0 22 22" fill="none" xmlns="http://www.w3.org/2000/svg">
<path fill-rule="evenodd" clip-rule="evenodd" d="M10.8915 3.23086C9.87701 3.23086 9.0546 4.05076 9.0546 5.06216V6.05949H7.5264V5.06216C7.5264 3.20932 9.033 1.70731 10.8915 1.70731C12.75 1.70731 14.2566 3.20932 14.2566 5.06216V6.05949H12.7284V5.06216C12.7284 4.05076 11.906 3.23086 10.8915 3.23086ZM15.4121 7.58307H5.97001C5.43202 7.58307 4.98675 8.0001 4.9532 8.53541L4.55146 14.9436C4.42316 16.9902 6.05349 18.7203 8.11032 18.7203H13.2718C15.3286 18.7203 16.9589 16.9902 16.8306 14.9436L16.4289 8.53541C16.3953 8.0001 15.9501 7.58307 15.4121 7.58307ZM5.97001 6.05952C4.62503 6.05952 3.51187 7.1021 3.42797 8.44038L3.02624 14.8486C2.84295 17.7723 5.17199 20.2439 8.11032 20.2439H13.2718C16.2101 20.2439 18.5391 17.7723 18.3559 14.8486L17.9541 8.44038C17.8702 7.1021 16.7571 6.05952 15.4121 6.05952H5.97001ZM12.7281 9.45041C12.7281 10.4618 11.9057 11.2817 10.8912 11.2817C9.87673 11.2817 9.05433 10.4618 9.05433 9.45041L9.05433 9.25095C9.05433 8.83023 8.71223 8.48917 8.29023 8.48917C7.86823 8.48917 7.52613 8.83023 7.52613 9.25095V9.45041C7.52613 11.3032 9.03273 12.8053 10.8912 12.8053C12.7497 12.8053 14.2563 11.3032 14.2563 9.45041V9.25095C14.2563 8.83023 13.9142 8.48917 13.4922 8.48917C13.0702 8.48917 12.7281 8.83023 12.7281 9.25095V9.45041Z" fill="#333333"/>
</svg>
